<svg xmlns="http://www.w3.org/2000/svg" viewBox="0 0 1440 800" preserveAspectRatio="none">
  <defs>
    <linearGradient id="gradVertical" x1="0%" y1="0%" x2="0%" y2="100%">
      <stop offset="0%" style="stop-color:#000000; stop-opacity:1" />
      <stop offset="100%" style="stop-color:#000011; stop-opacity:1" />
    </linearGradient>
  </defs>
  <rect width="1440" height="800" fill="url(#gradVertical)" />
  <path d="M0,400 C400,350 800,450 1200,400 C1600,350 2000,450 2400,400 L2400,800 L0,800 Z" fill="#000022" opacity="0.2" />
  <path d="M0,500 C400,550 800,350 1200,500 C1600,650 2000,400 2400,500 L2400,800 L0,800 Z" fill="#000033" opacity="0.1" />
  <path d="M0,600 C400,650 800,550 1200,600 C1600,650 2000,600 2400,600 L2400,800 L0,800 Z" fill="#000022" opacity="0.05" />
</svg>